<?xml version="1.0" encoding="UTF-8"?><svg id="Layer_2" xmlns="http://www.w3.org/2000/svg" viewBox="0 0 76 7.4"><defs><style>.cls-1{fill:#231f20;}</style></defs><g id="Layer_1-2"><path class="cls-1" d="m40.38,0h-6.01c-.32,0-.58.26-.58.58v3.88c0,.32.26.58.58.58h1.47s0,0,0,0c.01,0,.02,0,.02-.02,0-.03,0-.06.01-.09.06-.36.34-.65.69-.71.03,0,.06,0,.09-.01l-.08-.03c-.31-.11-.54-.26-.72-.44-.21-.22-.31-.49-.31-.8,0-.49.19-1.16,1.12-1.55.54-.23,1.28-.34,2.25-.34h0c1.22,0,2.16.12,2.76.65.27.24.37.62.24.96-.03.07-.06.14-.1.2-.17.24-.13.57.08.77,0,0,0,0,0,0,.25.23.38.53.37.87,0,.37-.11.7-.32.97-.19.24-.46.43-.8.58-.54.23-1.28.34-2.25.34-.5,0-1.04-.02-1.53-.11-.36-.07-.69.21-.69.57h0c0,.32.26.58.58.58h3.09c2.03.03,3.54-1.69,3.52-3.7C43.92,1.68,42.42-.03,40.38,0Z"/><circle class="cls-1" cx="35.16" cy="6.42" r=".98"/><path class="cls-1" d="m42.01,4.48c0,1.3-1.49,1.61-3.08,1.61-.79,0-1.52-.05-2.07-.27-.05-.02-.09-.04-.13-.06-.09-.04-.17-.09-.24-.14-.04-.03-.09-.06-.13-.1-.1-.08-.16-.19-.18-.29-.02-.08-.02-.16,0-.24.09-.53.78-.54,1.2-.5.39.04.64.33,1.02.4.17.03.36.04.55.04.55,0,1.23-.09,1.23-.44,0-.15-.3-.2-.75-.24-.16-.01-.33-.02-.52-.03-.71-.04-1.58-.08-2.21-.31-.49-.18-.84-.48-.84-.98,0-1.3,1.49-1.61,3.08-1.61,1.07,0,2.02.09,2.58.58.25.22.26.59.05.84-.21.23-.57.24-.85.22-.37-.02-.58-.19-.91-.34-.27-.12-.58-.13-.87-.13-.55,0-1.23.08-1.23.44,0,.2.55.23,1.26.26.58.03,1.26.06,1.84.2.07.02.13.03.2.05.59.17,1.01.48,1.01,1.04Z"/><path class="cls-1" d="m45.83,5.18v-2.97h-1.12v-.47h2.76v.47h-1.12v2.97h-.52Z"/><path class="cls-1" d="m54.51,1.75h.49v2.1c0,.48-.13.84-.38,1.07s-.63.35-1.12.35c-.47,0-.83-.12-1.08-.37s-.38-.61-.38-1.08V1.75h.52v2.05c0,.16.02.3.05.43.04.12.09.23.17.32s.18.15.3.2c.12.04.27.07.45.07.35,0,.61-.09.76-.26s.23-.42.23-.74V1.75Z"/><path class="cls-1" d="m59.76,1.75h1.23c.27,0,.51.05.72.15.21.1.39.23.53.39.14.16.25.35.32.55s.11.42.11.64-.04.44-.12.65-.19.39-.33.54c-.14.16-.32.28-.53.37s-.44.14-.7.14h-1.23V1.75Zm1.23,2.99c.14,0,.28-.02.42-.07.14-.05.26-.12.37-.22.11-.1.2-.23.26-.39.07-.16.1-.34.1-.56s-.03-.41-.09-.57c-.06-.16-.14-.3-.25-.41-.1-.11-.23-.19-.37-.24-.14-.05-.29-.08-.46-.08h-.71v2.54h.71Z"/><path class="cls-1" d="m67.35,5.18V1.75h.52v3.43h-.52Z"/><path class="cls-1" d="m74.29,5.26c-.26,0-.49-.05-.7-.14-.21-.09-.39-.22-.55-.38-.15-.16-.27-.36-.36-.59-.08-.23-.13-.48-.13-.75s.05-.51.14-.72c.09-.22.22-.4.38-.56.16-.15.34-.27.56-.36.21-.08.44-.12.68-.12s.48.04.68.13c.21.08.38.2.53.36s.27.34.35.56c.08.22.12.46.12.73s-.04.5-.13.73-.21.42-.36.59c-.15.17-.33.29-.54.39-.21.09-.43.14-.68.14Zm0-.46c.17,0,.33-.04.47-.11s.27-.17.38-.29c.11-.12.19-.26.25-.43.06-.16.09-.34.09-.53,0-.2-.03-.38-.09-.55-.06-.17-.14-.31-.24-.42-.1-.12-.23-.21-.38-.27-.15-.07-.31-.1-.5-.1-.17,0-.33.03-.48.1-.15.07-.27.16-.38.28-.11.12-.19.26-.25.42-.06.16-.09.34-.09.53s.03.38.09.54c.06.17.14.31.25.43s.23.22.38.29c.15.07.31.1.5.1Z"/><path class="cls-1" d="m3.82,1.56c1.18-.02,2.06.98,2.05,2.15,0,1.17-.87,2.16-2.05,2.15H.33c-.18,0-.33-.15-.33-.33V1.89c0-.18.15-.33.33-.33h3.49Zm-.42,1.36h-1.73v1.57h1.84c.44,0,.69-.36.68-.8s-.36-.77-.79-.77Z"/><path class="cls-1" d="m12.51,1.55h2.1l1.68,2.15,1.68-2.15h2.09v4.3h-1.68v-2.29l-1.68,2.29h-.84l-1.68-2.29v2.29h-1.68V1.55Z"/><path class="cls-1" d="m12.07,4.44c0,1.23-1.42,1.53-2.93,1.53-.76,0-1.45-.05-1.97-.26-.04-.02-.09-.04-.13-.06-.08-.04-.16-.08-.23-.13-.04-.03-.08-.06-.12-.09-.09-.08-.15-.18-.17-.28-.02-.08-.02-.15,0-.23.09-.5.74-.52,1.14-.48.37.04.6.32.97.38.16.03.34.04.53.04.52,0,1.17-.09,1.17-.42,0-.14-.29-.19-.71-.22-.15-.01-.32-.02-.49-.03-.67-.03-1.5-.08-2.1-.29-.47-.17-.8-.45-.8-.93,0-1.23,1.42-1.53,2.93-1.53,1.02,0,1.92.09,2.45.55.23.2.25.57.05.8-.2.22-.54.23-.81.21-.35-.02-.55-.19-.86-.32-.26-.11-.55-.13-.83-.13-.52,0-1.17.08-1.17.42,0,.19.52.22,1.2.25.55.03,1.2.06,1.75.19.06.02.13.03.19.05.56.17.96.46.96.99Z"/><path class="cls-1" d="m26.47,4.44c0,1.23-1.42,1.53-2.93,1.53-.76,0-1.45-.05-1.97-.26-.04-.02-.09-.04-.13-.06-.08-.04-.16-.08-.23-.13-.04-.03-.08-.06-.12-.09-.09-.08-.15-.18-.17-.28-.02-.08-.02-.15,0-.23.09-.5.74-.52,1.14-.48.37.04.6.32.97.38.16.03.34.04.53.04.52,0,1.17-.09,1.17-.42,0-.14-.29-.19-.71-.22-.15-.01-.32-.02-.49-.03-.67-.03-1.5-.08-2.1-.29-.47-.17-.8-.45-.8-.93,0-1.23,1.42-1.53,2.93-1.53,1.02,0,1.92.09,2.45.55.23.2.25.57.05.8-.2.22-.54.23-.81.21-.35-.02-.55-.19-.86-.32-.26-.11-.55-.13-.83-.13-.52,0-1.17.08-1.17.42,0,.19.52.22,1.2.25.55.03,1.2.06,1.75.19.06.02.13.03.19.05.56.17.96.46.96.99Z"/><path class="cls-1" d="m32.61,4.44c0,1.23-1.42,1.53-2.93,1.53-.76,0-1.45-.05-1.97-.26-.04-.02-.09-.04-.13-.06-.08-.04-.16-.08-.23-.13-.04-.03-.08-.06-.12-.09-.09-.08-.15-.18-.17-.28-.02-.08-.02-.15,0-.23.09-.5.74-.52,1.14-.48.37.04.6.32.97.38.16.03.34.04.53.04.52,0,1.17-.09,1.17-.42,0-.14-.29-.19-.71-.22-.15-.01-.32-.02-.49-.03-.67-.03-1.5-.08-2.1-.29-.47-.17-.8-.45-.8-.93,0-1.23,1.42-1.53,2.93-1.53,1.02,0,1.92.09,2.45.55.23.2.25.57.05.8-.2.22-.54.23-.81.21-.35-.02-.55-.19-.86-.32-.26-.11-.55-.13-.83-.13-.52,0-1.17.08-1.17.42,0,.19.52.22,1.2.25.55.03,1.2.06,1.75.19.06.02.13.03.19.05.56.17.96.46.96.99Z"/></g></svg>