<?xml version="1.0" encoding="UTF-8"?><svg id="Layer_2" xmlns="http://www.w3.org/2000/svg" viewBox="0 0 47.12 34.5"><defs><style>.cls-1{fill:#231f20;}</style></defs><g id="Layer_1-2"><path class="cls-1" d="m30.7,0H2.7C1.21,0,0,1.21,0,2.7v18.08c0,1.49,1.21,2.7,2.7,2.7h6.83s.03,0,.04,0c.05,0,.09-.04.1-.09,0-.14.03-.28.05-.42.29-1.68,1.59-3.01,3.23-3.33.14-.03.28-.05.42-.06l-.38-.14c-1.45-.53-2.54-1.21-3.33-2.06-.96-1.03-1.44-2.29-1.44-3.73,0-2.3.9-5.42,5.2-7.23,2.54-1.07,5.97-1.58,10.48-1.58h0c5.69.04,10.06.56,12.87,3.01,1.28,1.12,1.72,2.87,1.12,4.47-.12.33-.28.63-.47.91-.78,1.13-.63,2.65.38,3.58,0,0,.02.02.03.02,1.16,1.09,1.75,2.45,1.75,4.05,0,1.75-.5,3.27-1.48,4.53-.87,1.12-2.12,2.02-3.73,2.69-2.53,1.06-5.96,1.58-10.48,1.58-2.32,0-4.83-.09-7.13-.52-1.66-.31-3.2.96-3.2,2.65h0c0,1.49,1.21,2.7,2.7,2.7h14.43c9.47.13,16.5-7.88,16.43-17.25C47.2,7.83,40.17-.13,30.7,0Z"/><circle class="cls-1" cx="6.32" cy="29.95" r="4.55"/><path class="cls-1" d="m38.28,20.87c0,6.05-6.93,7.48-14.37,7.48-3.7,0-7.09-.24-9.65-1.28-.21-.09-.42-.18-.62-.28-.4-.2-.78-.42-1.13-.66-.21-.14-.4-.29-.59-.46-.45-.39-.73-.87-.86-1.37-.09-.37-.11-.76-.04-1.13.43-2.46,3.62-2.53,5.58-2.33,1.8.18,2.96,1.56,4.73,1.89.78.14,1.66.2,2.58.2,2.57,0,5.72-.42,5.72-2.06,0-.69-1.4-.94-3.48-1.1-.73-.05-1.55-.09-2.42-.13-3.3-.17-7.36-.37-10.29-1.44-2.31-.84-3.92-2.23-3.91-4.56,0-6.05,6.93-7.5,14.37-7.5,4.99.03,9.42.42,12.01,2.69,1.15,1,1.23,2.77.22,3.9-.96,1.08-2.63,1.12-3.97,1.05-1.74-.1-2.69-.91-4.23-1.58-1.25-.55-2.7-.62-4.04-.62-2.57,0-5.72.38-5.72,2.06,0,.93,2.57,1.06,5.89,1.21,2.7.14,5.89.3,8.57.93.31.07.62.16.91.24,2.73.81,4.72,2.24,4.71,4.84Z"/></g></svg>