<?xml version="1.0" encoding="UTF-8"?><svg id="Layer_2" xmlns="http://www.w3.org/2000/svg" viewBox="0 0 86.08 16.67"><defs><style>.cls-1{fill:#231f20;}</style></defs><g id="Layer_1-2"><path class="cls-1" d="m14.83,0H1.3C.58,0,0,.58,0,1.3v8.74c0,.72.58,1.3,1.3,1.3h3.3s.01,0,.02,0c.03,0,.05-.02.05-.05,0-.07.01-.14.02-.2.14-.81.77-1.46,1.56-1.61.07-.01.13-.02.2-.03l-.18-.07c-.7-.26-1.23-.58-1.61-1-.46-.5-.7-1.11-.69-1.8,0-1.11.44-2.62,2.51-3.49,1.23-.51,2.88-.76,5.06-.76h0c2.75.02,4.86.27,6.22,1.45.62.54.83,1.39.54,2.16-.06.16-.14.31-.23.44-.38.55-.3,1.28.19,1.73,0,0,0,0,.01.01.56.53.85,1.19.84,1.96,0,.84-.24,1.58-.71,2.19-.42.54-1.03.98-1.8,1.3-1.22.51-2.88.76-5.06.76-1.12,0-2.34-.04-3.45-.25-.8-.15-1.55.46-1.55,1.28h0c0,.72.58,1.3,1.3,1.3h6.97c4.58.06,7.97-3.81,7.94-8.33C22.8,3.78,19.41-.06,14.83,0Z"/><circle class="cls-1" cx="3.05" cy="14.47" r="2.2"/><path class="cls-1" d="m18.49,10.08c0,2.92-3.35,3.62-6.94,3.62-1.79,0-3.42-.11-4.66-.62-.1-.04-.2-.09-.3-.13-.19-.09-.38-.2-.55-.32-.1-.07-.19-.14-.28-.22-.22-.19-.35-.42-.41-.66-.05-.18-.05-.37-.02-.55.21-1.19,1.75-1.22,2.69-1.13.87.09,1.43.75,2.29.91.38.07.8.1,1.25.1,1.24,0,2.76-.21,2.76-1,0-.33-.68-.46-1.68-.53-.35-.03-.75-.05-1.17-.06-1.6-.08-3.56-.18-4.97-.7-1.11-.41-1.89-1.08-1.89-2.2,0-2.92,3.35-3.62,6.94-3.62,2.41.02,4.55.2,5.8,1.3.56.48.59,1.34.11,1.89-.46.52-1.27.54-1.92.51-.84-.05-1.3-.44-2.04-.77-.6-.27-1.3-.3-1.95-.3-1.24,0-2.76.18-2.76,1,0,.45,1.24.51,2.85.59,1.3.07,2.85.14,4.14.45.15.04.3.07.44.12,1.32.39,2.28,1.08,2.28,2.34Z"/><path class="cls-1" d="m28.13,16.45v-5.67h-2.13v-.89h5.27v.89h-2.15v5.67h-.99Z"/><path class="cls-1" d="m44.71,9.89h.94v4.01c0,.93-.24,1.61-.73,2.05-.48.44-1.2.67-2.15.67-.89,0-1.58-.24-2.07-.72-.48-.48-.73-1.16-.73-2.06v-3.95h.99v3.92c0,.31.03.58.1.82.07.24.17.44.32.61.15.17.34.29.57.38.23.09.52.13.85.13.67,0,1.16-.16,1.45-.49.29-.33.44-.8.44-1.41v-3.95Z"/><path class="cls-1" d="m54.76,9.89h2.34c.51,0,.97.09,1.37.28.4.19.74.44,1.01.74.27.31.47.66.62,1.06.14.4.21.8.21,1.22s-.07.85-.22,1.24c-.15.39-.36.74-.63,1.04-.28.3-.61.54-1.01.72-.4.18-.84.27-1.34.27h-2.35v-6.56Zm2.35,5.71c.27,0,.54-.05.8-.14.26-.09.5-.23.71-.43.21-.19.38-.44.51-.74.13-.3.19-.66.19-1.07s-.06-.78-.17-1.09c-.11-.31-.27-.57-.47-.78-.2-.21-.43-.36-.7-.46-.27-.1-.56-.15-.87-.15h-1.35v4.85h1.36Z"/><path class="cls-1" d="m69.27,16.45v-6.56h.99v6.56h-.99Z"/><path class="cls-1" d="m82.54,16.62c-.49,0-.94-.09-1.34-.26s-.75-.42-1.04-.73-.52-.69-.68-1.12c-.16-.43-.24-.91-.24-1.43s.09-.97.27-1.38.42-.77.72-1.06.66-.52,1.06-.68c.4-.16.84-.24,1.3-.24s.91.08,1.31.24c.4.16.74.39,1.02.68.28.29.51.65.67,1.07s.24.88.24,1.39-.08.96-.25,1.39c-.17.43-.4.81-.69,1.12-.29.32-.64.56-1.04.74-.4.18-.83.27-1.3.27Zm0-.88c.32,0,.63-.07.91-.2.28-.13.52-.32.73-.55.21-.23.37-.5.48-.81.12-.31.17-.65.17-1.01,0-.38-.06-.73-.17-1.04-.11-.32-.27-.58-.46-.81-.2-.22-.44-.4-.72-.52-.28-.13-.6-.19-.95-.19-.33,0-.64.06-.92.19-.28.13-.53.3-.73.53-.21.23-.37.49-.48.8-.12.31-.17.64-.17,1.01s.06.72.17,1.04c.11.32.27.59.47.83.2.23.45.42.73.55.28.13.6.2.95.2Z"/><path class="cls-1" d="m35.6.27h4.01l3.2,4.11,3.21-4.11h4v8.21h-3.2v-4.38l-3.21,4.38h-1.6l-3.21-4.38v4.38h-3.2V.27Z"/><path class="cls-1" d="m82.16.29c2.26-.03,3.93,1.86,3.91,4.11.02,2.23-1.66,4.14-3.91,4.11h-6.67c-.35,0-.64-.28-.64-.64V.92c0-.35.28-.64.64-.64h6.67Zm-.81,2.6h-3.3v3.01h3.51c.84,0,1.31-.69,1.3-1.53s-.69-1.48-1.51-1.48Z"/><path class="cls-1" d="m34.77,5.8c0,2.36-2.71,2.92-5.61,2.92-1.44,0-2.77-.09-3.77-.5-.08-.03-.16-.07-.24-.11-.16-.08-.3-.16-.44-.26-.08-.06-.16-.11-.23-.18-.18-.15-.29-.34-.33-.53-.04-.15-.04-.3-.02-.44.17-.96,1.41-.99,2.18-.91.7.07,1.16.61,1.85.74.31.06.65.08,1.01.08,1,0,2.23-.17,2.23-.8,0-.27-.55-.37-1.36-.43-.29-.02-.6-.04-.94-.05-1.29-.07-2.87-.14-4.01-.56-.9-.33-1.53-.87-1.53-1.78C23.56.61,26.26.05,29.17.05c1.95.01,3.67.16,4.69,1.05.45.39.48,1.08.09,1.52-.37.42-1.03.44-1.55.41-.68-.04-1.05-.35-1.65-.62-.49-.22-1.05-.24-1.58-.24-1,0-2.23.15-2.23.8,0,.36,1,.41,2.3.47,1.05.05,2.3.12,3.34.36.12.03.24.06.36.09,1.06.32,1.84.87,1.84,1.89Z"/><path class="cls-1" d="m62.29,5.8c0,2.36-2.71,2.92-5.61,2.92-1.44,0-2.77-.09-3.77-.5-.08-.03-.16-.07-.24-.11-.16-.08-.3-.16-.44-.26-.08-.06-.16-.11-.23-.18-.18-.15-.29-.34-.33-.53-.04-.15-.04-.3-.02-.44.17-.96,1.41-.99,2.18-.91.7.07,1.16.61,1.85.74.31.06.65.08,1.01.08,1,0,2.23-.17,2.23-.8,0-.27-.55-.37-1.36-.43-.29-.02-.6-.04-.94-.05-1.29-.07-2.87-.14-4.01-.56-.9-.33-1.53-.87-1.53-1.78C51.08.61,53.78.05,56.68.05c1.95.01,3.67.16,4.69,1.05.45.39.48,1.08.09,1.52-.37.42-1.03.44-1.55.41-.68-.04-1.05-.35-1.65-.62-.49-.22-1.05-.24-1.58-.24-1,0-2.23.15-2.23.8,0,.36,1,.41,2.3.47,1.05.05,2.3.12,3.34.36.12.03.24.06.36.09,1.06.32,1.84.87,1.84,1.89Z"/><path class="cls-1" d="m74.03,5.8c0,2.36-2.71,2.92-5.61,2.92-1.44,0-2.77-.09-3.77-.5-.08-.03-.16-.07-.24-.11-.16-.08-.3-.16-.44-.26-.08-.06-.16-.11-.23-.18-.18-.15-.29-.34-.33-.53-.04-.15-.04-.3-.02-.44.17-.96,1.41-.99,2.18-.91.7.07,1.16.61,1.85.74.31.06.65.08,1.01.08,1,0,2.23-.17,2.23-.8,0-.27-.55-.37-1.36-.43-.29-.02-.6-.04-.94-.05-1.29-.07-2.87-.14-4.01-.56-.9-.33-1.53-.87-1.53-1.78,0-2.36,2.71-2.93,5.61-2.93,1.95.01,3.67.16,4.69,1.05.45.39.48,1.08.09,1.52-.37.42-1.03.44-1.55.41-.68-.04-1.05-.35-1.65-.62-.49-.22-1.05-.24-1.58-.24-1,0-2.23.15-2.23.8,0,.36,1,.41,2.3.47,1.05.05,2.3.12,3.34.36.12.03.24.06.36.09,1.06.32,1.84.87,1.84,1.89Z"/></g></svg>