<?xml version="1.0" encoding="UTF-8"?><svg id="Layer_2" xmlns="http://www.w3.org/2000/svg" viewBox="0 0 91.11 19.61"><defs><style>.cls-1{font-family:GalderglynnTitlingBk-Regular, 'Galderglynn Titling';font-size:9.67px;letter-spacing:.87em;}.cls-1,.cls-2{fill:#231f20;}</style></defs><g id="Layer_1-2"><text class="cls-1" transform="translate(4.23 17.27)"><tspan x="0" y="0">Studio</tspan></text><path class="cls-2" d="m11.99.25c2.37-.03,4.14,1.96,4.12,4.32.02,2.35-1.74,4.35-4.12,4.32h-7.02c-.37,0-.67-.3-.67-.67V.92c0-.37.3-.67.67-.67h7.02Zm-.85,2.74h-3.47v3.16h3.69c.88,0,1.38-.73,1.37-1.61s-.72-1.55-1.59-1.55Z"/><path class="cls-2" d="m29.45.24h4.22l3.37,4.32L40.42.24h4.21v8.64h-3.37v-4.61l-3.38,4.61h-1.69l-3.38-4.61v4.61h-3.37V.24Z"/><path class="cls-2" d="m78.46.25c2.37-.03,4.14,1.96,4.12,4.32.02,2.35-1.74,4.35-4.12,4.32h-7.02c-.37,0-.67-.3-.67-.67V.92c0-.37.3-.67.67-.67h7.02Zm-.85,2.74h-3.47v3.16h3.69c.88,0,1.38-.73,1.37-1.61s-.72-1.55-1.59-1.55Z"/><path class="cls-2" d="m28.59,6.05c0,2.48-2.85,3.07-5.9,3.07-1.52,0-2.91-.1-3.96-.52-.09-.04-.17-.07-.26-.11-.17-.08-.32-.17-.47-.27-.08-.06-.16-.12-.24-.19-.19-.16-.3-.36-.35-.56-.04-.15-.04-.31-.02-.46.18-1.01,1.49-1.04,2.29-.96.74.07,1.22.64,1.94.77.32.06.68.08,1.06.08,1.05,0,2.35-.17,2.35-.85,0-.28-.58-.39-1.43-.45-.3-.02-.64-.04-.99-.06-1.36-.07-3.02-.15-4.22-.59-.95-.35-1.61-.92-1.61-1.87,0-2.48,2.85-3.08,5.9-3.08,2.05.01,3.87.17,4.93,1.1.47.41.51,1.14.09,1.6-.39.44-1.08.46-1.63.43-.71-.04-1.11-.37-1.74-.65-.51-.23-1.11-.25-1.66-.25-1.05,0-2.35.15-2.35.85,0,.38,1.05.43,2.42.5,1.11.06,2.42.12,3.52.38.13.03.25.06.38.1,1.12.33,1.94.92,1.94,1.99Z"/><path class="cls-2" d="m57.55,6.05c0,2.48-2.85,3.07-5.9,3.07-1.52,0-2.91-.1-3.96-.52-.09-.04-.17-.07-.26-.11-.17-.08-.32-.17-.47-.27-.08-.06-.16-.12-.24-.19-.19-.16-.3-.36-.35-.56-.04-.15-.04-.31-.02-.46.18-1.01,1.49-1.04,2.29-.96.74.07,1.22.64,1.94.77.32.06.68.08,1.06.08,1.05,0,2.35-.17,2.35-.85,0-.28-.58-.39-1.43-.45-.3-.02-.64-.04-.99-.06-1.36-.07-3.02-.15-4.22-.59-.95-.35-1.61-.92-1.61-1.87,0-2.48,2.85-3.08,5.9-3.08,2.05.01,3.87.17,4.93,1.1.47.41.51,1.14.09,1.6-.39.44-1.08.46-1.63.43-.71-.04-1.11-.37-1.74-.65-.51-.23-1.11-.25-1.66-.25-1.05,0-2.35.15-2.35.85,0,.38,1.05.43,2.42.5,1.11.06,2.42.12,3.52.38.13.03.25.06.38.1,1.12.33,1.94.92,1.94,1.99Z"/><path class="cls-2" d="m69.9,6.05c0,2.48-2.85,3.07-5.9,3.07-1.52,0-2.91-.1-3.96-.52-.09-.04-.17-.07-.26-.11-.17-.08-.32-.17-.47-.27-.08-.06-.16-.12-.24-.19-.19-.16-.3-.36-.35-.56-.04-.15-.04-.31-.02-.46.18-1.01,1.49-1.04,2.29-.96.74.07,1.22.64,1.94.77.32.06.68.08,1.06.08,1.05,0,2.35-.17,2.35-.85,0-.28-.58-.39-1.43-.45-.3-.02-.64-.04-.99-.06-1.36-.07-3.02-.15-4.22-.59-.95-.35-1.61-.92-1.61-1.87,0-2.48,2.85-3.08,5.9-3.08,2.05.01,3.87.17,4.93,1.1.47.41.51,1.14.09,1.6-.39.44-1.08.46-1.63.43-.71-.04-1.11-.37-1.74-.65-.51-.23-1.11-.25-1.66-.25-1.05,0-2.35.15-2.35.85,0,.38,1.05.43,2.42.5,1.11.06,2.42.12,3.52.38.13.03.25.06.38.1,1.12.33,1.94.92,1.94,1.99Z"/></g></svg>