<?xml version="1.0" encoding="UTF-8"?><svg id="Layer_2" xmlns="http://www.w3.org/2000/svg" viewBox="0 0 65.77 50.6"><defs><style>.cls-1{font-family:GalderglynnTitlingBk-Regular, 'Galderglynn Titling';font-size:6.98px;letter-spacing:.87em;}.cls-1,.cls-2{fill:#231f20;}</style></defs><g id="Layer_1-2"><text class="cls-1" transform="translate(3.05 48.91)"><tspan x="0" y="0">Studio</tspan></text><path class="cls-2" d="m38.49,0H10.49C9,0,7.79,1.21,7.79,2.7v18.08c0,1.49,1.21,2.7,2.7,2.7h6.83s.03,0,.04,0c.05,0,.09-.04.1-.09,0-.14.03-.28.05-.42.29-1.68,1.59-3.01,3.23-3.33.14-.03.28-.05.42-.06l-.38-.14c-1.45-.53-2.54-1.21-3.33-2.06-.96-1.03-1.44-2.29-1.44-3.73,0-2.3.9-5.42,5.2-7.23,2.54-1.07,5.97-1.58,10.48-1.58h0c5.69.04,10.06.56,12.87,3.01,1.28,1.12,1.72,2.87,1.12,4.47-.12.33-.28.63-.47.91-.78,1.13-.63,2.65.38,3.58,0,0,.02.02.03.02,1.16,1.09,1.75,2.45,1.75,4.05,0,1.75-.5,3.27-1.48,4.53-.87,1.12-2.12,2.02-3.73,2.69-2.53,1.06-5.96,1.58-10.48,1.58-2.32,0-4.83-.09-7.13-.52-1.66-.31-3.2.96-3.2,2.65h0c0,1.49,1.21,2.7,2.7,2.7h14.43c9.47.13,16.5-7.88,16.43-17.25C54.99,7.83,47.96-.13,38.49,0Z"/><circle class="cls-2" cx="14.12" cy="29.95" r="4.55"/><path class="cls-2" d="m46.07,20.87c0,6.05-6.93,7.48-14.37,7.48-3.7,0-7.09-.24-9.65-1.28-.21-.09-.42-.18-.62-.28-.4-.2-.78-.42-1.13-.66-.21-.14-.4-.29-.59-.46-.45-.39-.73-.87-.86-1.37-.09-.37-.11-.76-.04-1.13.43-2.46,3.62-2.53,5.58-2.33,1.8.18,2.96,1.56,4.73,1.89.78.14,1.66.2,2.58.2,2.57,0,5.72-.42,5.72-2.06,0-.69-1.4-.94-3.48-1.1-.73-.05-1.55-.09-2.42-.13-3.3-.17-7.36-.37-10.29-1.44-2.31-.84-3.92-2.23-3.91-4.56,0-6.05,6.93-7.5,14.37-7.5,4.99.03,9.42.42,12.01,2.69,1.15,1,1.23,2.77.22,3.9-.96,1.08-2.63,1.12-3.97,1.05-1.74-.1-2.69-.91-4.23-1.58-1.25-.55-2.7-.62-4.04-.62-2.57,0-5.72.38-5.72,2.06,0,.93,2.57,1.06,5.89,1.21,2.7.14,5.89.3,8.57.93.31.07.62.16.91.24,2.73.81,4.72,2.24,4.71,4.84Z"/><path class="cls-2" d="m8.65,36.63c1.71-.02,2.99,1.42,2.97,3.12.01,1.69-1.26,3.14-2.97,3.12H3.58c-.27,0-.48-.22-.48-.48v-5.27c0-.27.22-.48.48-.48h5.07Zm-.61,1.98h-2.51v2.28h2.66c.64,0,1-.53.99-1.16s-.52-1.12-1.15-1.12Z"/><path class="cls-2" d="m21.26,36.62h3.05l2.43,3.12,2.44-3.12h3.04v6.24h-2.43v-3.33l-2.44,3.33h-1.22l-2.44-3.33v3.33h-2.43v-6.24Z"/><path class="cls-2" d="m56.64,36.63c1.71-.02,2.99,1.42,2.97,3.12.01,1.69-1.26,3.14-2.97,3.12h-5.07c-.27,0-.48-.22-.48-.48v-5.27c0-.27.22-.48.48-.48h5.07Zm-.61,1.98h-2.51v2.28h2.66c.64,0,1-.53.99-1.16s-.52-1.12-1.15-1.12Z"/><path class="cls-2" d="m20.64,40.81c0,1.79-2.05,2.22-4.26,2.22-1.1,0-2.1-.07-2.86-.38-.06-.03-.13-.05-.19-.08-.12-.06-.23-.12-.34-.2-.06-.04-.12-.09-.17-.14-.13-.12-.22-.26-.25-.41-.03-.11-.03-.22-.01-.33.13-.73,1.07-.75,1.65-.69.53.05.88.46,1.4.56.23.04.49.06.76.06.76,0,1.7-.13,1.7-.61,0-.2-.42-.28-1.03-.32-.22-.02-.46-.03-.72-.04-.98-.05-2.18-.11-3.05-.43-.68-.25-1.16-.66-1.16-1.35,0-1.79,2.05-2.22,4.26-2.22,1.48,0,2.79.12,3.56.8.34.3.36.82.07,1.16-.28.32-.78.33-1.18.31-.51-.03-.8-.27-1.25-.47-.37-.16-.8-.18-1.2-.18-.76,0-1.7.11-1.7.61,0,.28.76.31,1.75.36.8.04,1.75.09,2.54.28.09.02.18.05.27.07.81.24,1.4.66,1.4,1.43Z"/><path class="cls-2" d="m41.54,40.81c0,1.79-2.05,2.22-4.26,2.22-1.1,0-2.1-.07-2.86-.38-.06-.03-.13-.05-.19-.08-.12-.06-.23-.12-.34-.2-.06-.04-.12-.09-.17-.14-.13-.12-.22-.26-.25-.41-.03-.11-.03-.22-.01-.33.13-.73,1.07-.75,1.65-.69.53.05.88.46,1.4.56.23.04.49.06.76.06.76,0,1.7-.13,1.7-.61,0-.2-.42-.28-1.03-.32-.22-.02-.46-.03-.72-.04-.98-.05-2.18-.11-3.05-.43-.68-.25-1.16-.66-1.16-1.35,0-1.79,2.05-2.22,4.26-2.22,1.48,0,2.79.12,3.56.8.34.3.36.82.07,1.16-.28.32-.78.33-1.18.31-.51-.03-.8-.27-1.25-.47-.37-.16-.8-.18-1.2-.18-.76,0-1.7.11-1.7.61,0,.28.76.31,1.75.36.8.04,1.75.09,2.54.28.09.02.18.05.27.07.81.24,1.4.66,1.4,1.43Z"/><path class="cls-2" d="m50.46,40.81c0,1.79-2.05,2.22-4.26,2.22-1.1,0-2.1-.07-2.86-.38-.06-.03-.13-.05-.19-.08-.12-.06-.23-.12-.34-.2-.06-.04-.12-.09-.17-.14-.13-.12-.22-.26-.25-.41-.03-.11-.03-.22-.01-.33.13-.73,1.07-.75,1.65-.69.53.05.88.46,1.4.56.23.04.49.06.76.06.76,0,1.7-.13,1.7-.61,0-.2-.42-.28-1.03-.32-.22-.02-.46-.03-.72-.04-.98-.05-2.18-.11-3.05-.43-.68-.25-1.16-.66-1.16-1.35,0-1.79,2.05-2.22,4.26-2.22,1.48,0,2.79.12,3.56.8.34.3.36.82.07,1.16-.28.32-.78.33-1.18.31-.51-.03-.8-.27-1.25-.47-.37-.16-.8-.18-1.2-.18-.76,0-1.7.11-1.7.61,0,.28.76.31,1.75.36.8.04,1.75.09,2.54.28.09.02.18.05.27.07.81.24,1.4.66,1.4,1.43Z"/></g></svg>